<svg width="54" height="21" viewBox="0 0 54 21" fill="none" xmlns="http://www.w3.org/2000/svg">
<path d="M1 3.97725C5 1.47729 5 1.47729 9 3.97725C16.5 7.47725 15.5 7.47729 22.5292 4.15391C22.6982 4.09422 22.8554 4.03507 23 3.97725C27.5 1.47726 27.6171 1.75844 31.5 3.97725C38.5 7.97727 38 7.97728 44.5 3.97725C49 1.20799 49 1.47728 53 3.97725" stroke="#7397B7" stroke-width="3"/>
<path d="M1 16.4545C5 13.9546 5 13.9546 9 16.4545C16.5 19.9545 15.5 19.9546 22.5292 16.6312C22.6982 16.5715 22.8554 16.5124 23 16.4545C27.5 13.9546 27.6171 14.2357 31.5 16.4545C38.5 20.4546 38 20.4546 44.5 16.4545C49 13.6853 49 13.9546 53 16.4545" stroke="#7397B7" stroke-width="3"/>
<path d="M1 10.4545C5 7.95459 5 7.95458 9 10.4545C16.5 13.9545 15.5 13.9546 22.5292 10.6312C22.6982 10.5715 22.8554 10.5124 23 10.4545C27.5 7.95456 27.6171 8.23573 31.5 10.4545C38.5 14.4546 38 14.4546 44.5 10.4545C49 7.68529 49 7.95457 53 10.4545" stroke="#7397B7" stroke-width="3"/>
</svg>
