<svg width="664" height="42" viewBox="0 0 664 42" fill="none" xmlns="http://www.w3.org/2000/svg">
<path d="M167 21.7805C132.5 6.28055 101.5 -21.7195 11.5 34.7805L2 41H11.5H200.5L167 21.7805Z" fill="#2475B7" stroke="#2176B9"/>
<path d="M142 41C190.873 -28.5921 307.07 6.78387 334 41H142Z" fill="#C83331" stroke="#C0342B"/>
<path d="M364 33C332.311 17.6357 317 15.5 268 41H276H540.924C542.427 39.5246 521.894 11 445.772 11C406.209 11 380.5 41 364 33Z" fill="#9AC769" fill-opacity="0.93" stroke="#9AC963"/>
<path d="M516 28.8592C462.5 34.3592 425.2 5.65917 408 40.8592H652L663 40.8592C661.833 33.5259 638.4 0.459191 598 4.85919C547.5 10.3592 559 24.4386 516 28.8592Z" fill="#FFD31E" stroke="#FFD31E"/>
</svg>
